<svg xmlns="http://www.w3.org/2000/svg" xmlns:xlink="http://www.w3.org/1999/xlink" version="1.1" x="0px" y="0px" viewBox="-475 477 48 60" enable-background="new -475 477 48 48" xml:space="preserve"><path d="M-468.306,484.592c0,0,0.138,0.134,0.397,0.385c0.259,0.252,0.64,0.618,1.121,1.09c0.482,0.471,1.067,1.042,1.738,1.698  c0.671,0.656,1.429,1.395,2.251,2.205c0.823,0.81,1.714,1.688,2.656,2.617c0.94,0.931,1.932,1.912,2.958,2.927  c1.024,1.018,2.082,2.069,3.156,3.137c1.073,1.07,2.163,2.157,3.253,3.245c1.087,1.09,2.175,2.179,3.245,3.253  c1.071,1.072,2.119,2.133,3.137,3.156c1.015,1.026,1.997,2.018,2.927,2.958c0.928,0.942,1.806,1.833,2.617,2.656  c0.81,0.823,1.55,1.58,2.205,2.251c0.656,0.671,1.227,1.256,1.698,1.738c0.471,0.481,0.838,0.863,1.09,1.121  c0.251,0.259,0.385,0.397,0.385,0.397s-0.138-0.134-0.397-0.385c-0.259-0.252-0.64-0.618-1.121-1.09  c-0.482-0.471-1.067-1.042-1.738-1.698c-0.672-0.655-1.429-1.395-2.251-2.205s-1.714-1.688-2.656-2.616  c-0.94-0.931-1.932-1.912-2.958-2.927c-1.024-1.018-2.085-2.065-3.156-3.137c-1.073-1.07-2.162-2.158-3.253-3.245  c-1.087-1.09-2.174-2.18-3.245-3.253c-1.068-1.075-2.119-2.133-3.137-3.156c-1.015-1.026-1.996-2.018-2.927-2.958  c-0.928-0.942-1.807-1.833-2.617-2.656c-0.81-0.822-1.55-1.58-2.205-2.251c-0.656-0.671-1.227-1.256-1.698-1.738  c-0.471-0.481-0.838-0.863-1.09-1.121C-468.172,484.73-468.306,484.592-468.306,484.592z"/><path d="M-439.231,487.25c0,0-0.109,0.114-0.315,0.327c-0.206,0.213-0.505,0.528-0.891,0.924c-0.385,0.396-0.853,0.878-1.39,1.43  c-0.537,0.553-1.142,1.176-1.806,1.852c-0.664,0.676-1.383,1.409-2.145,2.184c-0.763,0.773-1.567,1.588-2.4,2.43  c-0.835,0.841-1.694,1.713-2.573,2.592c-0.878,0.881-1.77,1.775-2.663,2.67c-0.895,0.892-1.79,1.784-2.67,2.663  c-0.88,0.88-1.752,1.738-2.592,2.573c-0.843,0.833-1.658,1.637-2.43,2.4c-0.775,0.761-1.507,1.48-2.184,2.144  c-0.676,0.664-1.299,1.27-1.852,1.806c-0.552,0.537-1.034,1.004-1.43,1.39c-0.396,0.386-0.71,0.686-0.924,0.892  c-0.213,0.205-0.327,0.315-0.327,0.315s0.109-0.114,0.315-0.327c0.206-0.213,0.505-0.528,0.892-0.924  c0.385-0.396,0.853-0.878,1.39-1.43c0.537-0.553,1.142-1.176,1.806-1.852c0.664-0.676,1.383-1.409,2.145-2.184  c0.763-0.773,1.568-1.588,2.4-2.431c0.835-0.841,1.694-1.713,2.573-2.592c0.878-0.881,1.77-1.775,2.663-2.67  c0.895-0.892,1.79-1.784,2.67-2.663c0.88-0.879,1.752-1.738,2.592-2.573c0.843-0.832,1.658-1.637,2.43-2.4  c0.775-0.761,1.507-1.48,2.184-2.145c0.676-0.664,1.299-1.27,1.852-1.806c0.552-0.537,1.034-1.005,1.43-1.39  c0.395-0.386,0.71-0.686,0.923-0.891C-439.345,487.36-439.231,487.25-439.231,487.25z"/><path d="M-438.829,494.337c0,0-0.317,0.334-0.872,0.917c-0.279,0.29-0.617,0.643-1.006,1.048c-0.39,0.403-0.83,0.858-1.31,1.354  c-0.481,0.495-1.002,1.031-1.556,1.595c-0.554,0.564-1.136,1.161-1.743,1.774c-0.607,0.613-1.231,1.25-1.871,1.891  c-0.639,0.642-1.288,1.294-1.938,1.946c-0.652,0.649-1.304,1.299-1.945,1.938c-0.64,0.64-1.278,1.264-1.89,1.871  c-0.613,0.607-1.209,1.19-1.774,1.743c-0.564,0.554-1.1,1.076-1.595,1.556c-0.494,0.482-0.95,0.921-1.354,1.31  c-0.404,0.388-0.757,0.727-1.048,1.006c-0.584,0.555-0.917,0.872-0.917,0.872s0.317-0.334,0.872-0.917  c0.279-0.29,0.617-0.643,1.006-1.048c0.389-0.404,0.828-0.859,1.31-1.354c0.481-0.495,1.002-1.031,1.556-1.595  c0.554-0.565,1.136-1.161,1.743-1.774c0.607-0.613,1.23-1.25,1.871-1.89c0.639-0.642,1.288-1.294,1.938-1.945  c0.652-0.649,1.304-1.299,1.946-1.938c0.641-0.64,1.278-1.264,1.891-1.871c0.613-0.607,1.209-1.19,1.774-1.743  c0.564-0.554,1.1-1.075,1.595-1.556c0.496-0.48,0.95-0.92,1.354-1.31c0.404-0.388,0.757-0.727,1.048-1.006  C-439.162,494.654-438.829,494.337-438.829,494.337z"/><path d="M-448.815,489.586c0,0-0.059,0.064-0.171,0.184c-0.112,0.119-0.275,0.296-0.485,0.518c-0.21,0.222-0.465,0.491-0.758,0.8  c-0.294,0.308-0.625,0.656-0.989,1.032c-0.363,0.377-0.757,0.786-1.176,1.215c-0.419,0.43-0.859,0.884-1.319,1.35  c-0.46,0.466-0.932,0.951-1.417,1.437c-0.485,0.487-0.977,0.982-1.469,1.477c-0.495,0.492-0.99,0.984-1.477,1.469  c-0.486,0.486-0.971,0.957-1.437,1.417c-0.465,0.46-0.92,0.9-1.35,1.319c-0.429,0.419-0.838,0.813-1.215,1.176  c-0.377,0.364-0.724,0.695-1.032,0.989c-0.309,0.293-0.578,0.548-0.8,0.758c-0.222,0.21-0.398,0.373-0.518,0.485  c-0.12,0.112-0.184,0.171-0.184,0.171s0.059-0.064,0.171-0.184c0.112-0.119,0.275-0.296,0.485-0.518  c0.21-0.222,0.465-0.491,0.758-0.8c0.294-0.308,0.624-0.656,0.989-1.032c0.363-0.378,0.757-0.786,1.176-1.215  c0.419-0.43,0.859-0.884,1.319-1.35c0.46-0.466,0.931-0.95,1.417-1.437c0.485-0.487,0.977-0.982,1.469-1.477  c0.495-0.492,0.99-0.984,1.477-1.469c0.487-0.486,0.971-0.957,1.437-1.417c0.465-0.46,0.92-0.9,1.35-1.319  c0.429-0.42,0.838-0.813,1.215-1.176c0.377-0.364,0.724-0.695,1.032-0.989c0.309-0.293,0.578-0.548,0.8-0.758  c0.222-0.211,0.398-0.373,0.518-0.485C-448.879,489.645-448.815,489.586-448.815,489.586z"/><path d="M-454.453,489.102c0,0-0.047,0.051-0.135,0.147c-0.088,0.096-0.216,0.238-0.382,0.415c-0.166,0.178-0.366,0.395-0.599,0.64  c-0.232,0.246-0.494,0.525-0.782,0.825c-0.287,0.302-0.599,0.628-0.931,0.97c-0.332,0.343-0.681,0.706-1.046,1.076  c-0.365,0.371-0.739,0.758-1.125,1.145c-0.385,0.388-0.776,0.782-1.168,1.176c-0.394,0.391-0.788,0.782-1.176,1.168  c-0.387,0.387-0.773,0.76-1.144,1.125c-0.371,0.365-0.733,0.715-1.076,1.046c-0.343,0.333-0.669,0.644-0.971,0.932  c-0.301,0.288-0.579,0.55-0.825,0.782c-0.246,0.233-0.462,0.433-0.64,0.599c-0.177,0.166-0.32,0.294-0.415,0.382  c-0.096,0.088-0.147,0.135-0.147,0.135s0.047-0.051,0.135-0.147s0.216-0.238,0.382-0.415c0.166-0.178,0.366-0.395,0.599-0.64  c0.232-0.247,0.494-0.525,0.782-0.825c0.287-0.302,0.599-0.628,0.931-0.97c0.332-0.343,0.681-0.706,1.046-1.076  c0.365-0.371,0.739-0.758,1.125-1.144c0.385-0.388,0.776-0.782,1.168-1.176c0.394-0.391,0.788-0.782,1.176-1.168  c0.387-0.386,0.773-0.76,1.145-1.125c0.371-0.365,0.734-0.714,1.076-1.046c0.342-0.333,0.669-0.644,0.97-0.931  c0.301-0.288,0.579-0.55,0.825-0.782c0.246-0.233,0.462-0.433,0.64-0.599c0.177-0.166,0.32-0.294,0.415-0.382  C-454.504,489.149-454.453,489.102-454.453,489.102z"/><path d="M-461.782,489.102c0,0,0.34,0.324,0.936,0.891c0.296,0.285,0.656,0.631,1.069,1.028c0.412,0.398,0.875,0.848,1.382,1.338  c0.505,0.491,1.053,1.024,1.629,1.59c0.577,0.565,1.186,1.16,1.811,1.781c0.626,0.62,1.276,1.257,1.931,1.911  c0.656,0.653,1.321,1.316,1.987,1.979c0.663,0.666,1.326,1.331,1.979,1.987c0.654,0.654,1.291,1.304,1.911,1.93  c0.62,0.626,1.216,1.235,1.781,1.811c0.566,0.576,1.099,1.123,1.59,1.629c0.492,0.505,0.941,0.969,1.338,1.382  c0.397,0.413,0.743,0.773,1.028,1.069c0.567,0.596,0.891,0.936,0.891,0.936s-0.34-0.324-0.936-0.891  c-0.296-0.285-0.656-0.631-1.069-1.028c-0.412-0.397-0.877-0.846-1.382-1.338c-0.505-0.491-1.053-1.024-1.629-1.59  c-0.577-0.565-1.186-1.16-1.811-1.781c-0.626-0.62-1.276-1.257-1.93-1.911c-0.656-0.653-1.321-1.316-1.987-1.979  c-0.663-0.666-1.326-1.331-1.979-1.987c-0.654-0.655-1.291-1.304-1.911-1.931c-0.62-0.626-1.215-1.235-1.781-1.811  c-0.566-0.576-1.098-1.123-1.589-1.629c-0.49-0.506-0.94-0.97-1.338-1.382c-0.397-0.413-0.743-0.773-1.028-1.069  C-461.458,489.443-461.782,489.102-461.782,489.102z"/><path d="M-457.916,488.538c0,0,0.311,0.295,0.857,0.811c0.271,0.26,0.6,0.575,0.978,0.936c0.377,0.362,0.802,0.771,1.263,1.22  c0.462,0.448,0.962,0.933,1.488,1.449c0.527,0.516,1.084,1.059,1.655,1.624c0.572,0.566,1.166,1.147,1.763,1.743  c0.598,0.596,1.206,1.201,1.814,1.806c0.606,0.608,1.211,1.216,1.807,1.814c0.597,0.597,1.178,1.192,1.744,1.763  c0.566,0.572,1.109,1.128,1.624,1.655c0.516,0.526,1.001,1.026,1.449,1.488c0.449,0.461,0.858,0.886,1.22,1.263  c0.362,0.378,0.677,0.707,0.936,0.978c0.516,0.545,0.811,0.857,0.811,0.857s-0.311-0.295-0.857-0.811  c-0.271-0.26-0.6-0.575-0.978-0.936c-0.377-0.362-0.802-0.771-1.263-1.22c-0.462-0.448-0.962-0.933-1.488-1.449  c-0.527-0.515-1.084-1.059-1.655-1.624c-0.572-0.566-1.166-1.147-1.763-1.744c-0.598-0.596-1.206-1.201-1.814-1.806  c-0.605-0.608-1.211-1.216-1.806-1.814c-0.597-0.597-1.178-1.192-1.743-1.763c-0.566-0.572-1.109-1.128-1.624-1.655  c-0.516-0.526-1.001-1.026-1.449-1.488c-0.449-0.461-0.858-0.886-1.22-1.263c-0.362-0.378-0.677-0.707-0.936-0.978  C-457.621,488.85-457.916,488.538-457.916,488.538z"/><path d="M-459.648,482.82c0,0,0.365,0.348,1.003,0.958c0.318,0.306,0.703,0.678,1.146,1.104c0.441,0.428,0.938,0.911,1.481,1.438  c0.542,0.528,1.129,1.099,1.746,1.707c0.618,0.607,1.271,1.246,1.943,1.912c0.671,0.665,1.368,1.35,2.07,2.051  c0.703,0.7,1.417,1.412,2.131,2.124c0.712,0.714,1.423,1.429,2.124,2.131c0.702,0.702,1.386,1.399,2.051,2.07  c0.665,0.671,1.305,1.324,1.912,1.943c0.608,0.618,1.179,1.204,1.707,1.746c0.527,0.543,1.009,1.04,1.438,1.481  c0.426,0.443,0.798,0.828,1.104,1.146c0.609,0.638,0.958,1.003,0.958,1.003s-0.365-0.348-1.003-0.958  c-0.318-0.306-0.704-0.678-1.146-1.104c-0.441-0.428-0.938-0.911-1.481-1.438c-0.542-0.528-1.128-1.099-1.746-1.707  c-0.618-0.607-1.271-1.246-1.943-1.912c-0.671-0.665-1.369-1.349-2.07-2.051c-0.703-0.7-1.417-1.412-2.131-2.124  c-0.712-0.714-1.423-1.429-2.124-2.131c-0.701-0.702-1.386-1.399-2.051-2.07c-0.665-0.671-1.304-1.324-1.912-1.943  c-0.608-0.617-1.179-1.204-1.707-1.746c-0.527-0.543-1.009-1.04-1.438-1.481c-0.426-0.443-0.798-0.828-1.104-1.146  C-459.3,483.185-459.648,482.82-459.648,482.82z"/><path d="M-456.064,485.075c0,0,0.069,0.065,0.198,0.186c0.129,0.121,0.318,0.299,0.559,0.526c0.239,0.228,0.53,0.504,0.863,0.822  c0.333,0.318,0.708,0.677,1.115,1.071c0.407,0.393,0.849,0.819,1.312,1.273c0.464,0.453,0.955,0.93,1.458,1.428  c0.504,0.497,1.027,1.009,1.553,1.533c0.527,0.524,1.062,1.057,1.597,1.59c0.533,0.535,1.065,1.07,1.59,1.597  c0.525,0.526,1.036,1.05,1.534,1.553c0.498,0.503,0.975,0.994,1.428,1.458c0.454,0.464,0.88,0.905,1.273,1.312  c0.394,0.407,0.753,0.782,1.071,1.115c0.317,0.333,0.594,0.624,0.822,0.864c0.227,0.241,0.404,0.43,0.526,0.559  c0.121,0.129,0.185,0.198,0.185,0.198s-0.069-0.065-0.198-0.185c-0.129-0.121-0.318-0.299-0.559-0.526  c-0.239-0.228-0.53-0.505-0.864-0.822c-0.333-0.318-0.708-0.677-1.115-1.071c-0.408-0.393-0.849-0.819-1.312-1.273  c-0.464-0.453-0.955-0.93-1.458-1.428c-0.504-0.497-1.027-1.008-1.553-1.534c-0.527-0.524-1.062-1.057-1.597-1.59  c-0.532-0.535-1.065-1.07-1.59-1.597c-0.525-0.526-1.036-1.05-1.533-1.553c-0.498-0.503-0.975-0.994-1.428-1.458  c-0.454-0.463-0.88-0.905-1.273-1.312c-0.394-0.407-0.753-0.782-1.071-1.115c-0.317-0.333-0.594-0.624-0.822-0.863  c-0.227-0.241-0.404-0.43-0.526-0.559C-455.999,485.144-456.064,485.075-456.064,485.075z"/><g><path d="M-431.747,521.615h-38.507c-1.086,0-1.969-0.884-1.969-1.969v-38.507c0-1.086,0.884-1.969,1.969-1.969h38.507   c1.086,0,1.969,0.884,1.969,1.969v38.507C-429.778,520.732-430.661,521.615-431.747,521.615z M-470.253,479.656   c-0.818,0-1.483,0.665-1.483,1.483v38.507c0,0.818,0.665,1.483,1.483,1.483h38.507c0.818,0,1.483-0.665,1.483-1.483v-38.507   c0-0.818-0.665-1.483-1.483-1.483H-470.253z"/></g><text x="-475" y="540" fill="#000000" font-size="5px" font-weight="bold" font-family="'Helvetica Neue', Helvetica, Arial-Unicode, Arial, Sans-serif">Created by Juano Manarrez</text><text x="-475" y="545" fill="#000000" font-size="5px" font-weight="bold" font-family="'Helvetica Neue', Helvetica, Arial-Unicode, Arial, Sans-serif">from the Noun Project</text></svg>